<svg id="visual" viewBox="0 0 960 540" width="960" height="540" xmlns="http://www.w3.org/2000/svg" xmlns:xlink="http://www.w3.org/1999/xlink" version="1.1"><path d="M418 0L531 0L531 77L434 77L434 154L483 154L483 231L528 231L528 309L438 309L438 386L415 386L415 463L559 463L559 540L0 540L0 463L0 463L0 386L0 386L0 309L0 309L0 231L0 231L0 154L0 154L0 77L0 77L0 0L0 0Z" fill="#0066ff"></path><path d="M395 0L366 0L366 77L344 77L344 154L445 154L445 231L339 231L339 309L361 309L361 386L397 386L397 463L312 463L312 540L0 540L0 463L0 463L0 386L0 386L0 309L0 309L0 231L0 231L0 154L0 154L0 77L0 77L0 0L0 0Z" fill="#004cb1"></path><path d="M278 0L288 0L288 77L312 77L312 154L289 154L289 231L212 231L212 309L244 309L244 386L265 386L265 463L191 463L191 540L0 540L0 463L0 463L0 386L0 386L0 309L0 309L0 231L0 231L0 154L0 154L0 77L0 77L0 0L0 0Z" fill="#003067"></path><path d="M187 0L156 0L156 77L112 77L112 154L134 154L134 231L81 231L81 309L172 309L172 386L145 386L145 463L96 463L96 540L0 540L0 463L0 463L0 386L0 386L0 309L0 309L0 231L0 231L0 154L0 154L0 77L0 77L0 0L0 0Z" fill="#001122"></path></svg>