<?xml version="1.0" ?><svg viewBox="0 0 32 32" xmlns="http://www.w3.org/2000/svg"><title/><g data-name="filter, auto, brightness, hue, saturation, color, hdr" id="filter_auto_brightness_hue_saturation_color_hdr"><path d="M24,12.11a8,8,0,0,0-16,0,8,8,0,1,0,8,13.62,8,8,0,1,0,8-13.62ZM16,6.5a6,6,0,1,1-6,6A6,6,0,0,1,16,6.5ZM5,19.5a6,6,0,0,1,3.19-5.28A8,8,0,0,0,13,19.92a7.85,7.85,0,0,0,1.58,4.36A6,6,0,0,1,5,19.5Zm16,6a6,6,0,0,1-4.29-1.81,5.92,5.92,0,0,1-1.62-3.25,6.84,6.84,0,0,0,.91.06,8,8,0,0,0,7.81-6.28A6,6,0,0,1,21,25.5Z"/></g></svg>