<?xml version="1.0" ?><svg viewBox="0 0 32 32" xmlns="http://www.w3.org/2000/svg"><title/><g data-name="6-Web Browser" id="_6-Web_Browser"><path d="M29,0H3A3,3,0,0,0,0,3V29a3,3,0,0,0,3,3H29a3,3,0,0,0,3-3V3A3,3,0,0,0,29,0Zm1,29a1,1,0,0,1-1,1H3a1,1,0,0,1-1-1V10H30ZM30,8H2V3A1,1,0,0,1,3,2H29a1,1,0,0,1,1,1Z"/><rect height="2" width="2" x="4" y="4"/><rect height="2" width="2" x="8" y="4"/><rect height="2" width="2" x="26" y="4"/><path d="M16,27a7,7,0,1,0-7-7A7,7,0,0,0,16,27Zm1-11.9A5,5,0,0,1,20.9,19H17Zm-2,0V20a1,1,0,0,0,1,1h4.9A5,5,0,1,1,15,15.1Z"/></g></svg>